{
	"asset":{
		"generator":"Khronos glTF Blender I/O v4.5.48",
		"version":"2.0"
	},
	"scene":0,
	"scenes":[
		{
			"name":"Scene",
			"nodes":[
				0
			]
		}
	],
	"nodes":[
		{
			"mesh":0,
			"name":"House_4"
		}
	],
	"materials":[
		{
			"doubleSided":true,
			"name":"Mat_House_1-5",
			"pbrMetallicRoughness":{
				"baseColorTexture":{
					"index":0
				},
				"metallicFactor":0,
				"roughnessFactor":0.5
			}
		}
	],
	"meshes":[
		{
			"name":"rpgpp_lt_building_04.001",
			"primitives":[
				{
					"attributes":{
						"POSITION":0,
						"NORMAL":1,
						"TEXCOORD_0":2
					},
					"indices":3,
					"material":0
				}
			]
		}
	],
	"textures":[
		{
			"sampler":0,
			"source":0
		}
	],
	"images":[
		{
			"mimeType":"image/png",
			"name":"rpgpp_lt_tex_a",
			"uri":"textures/rpgpp_lt_tex_a.png"
		}
	],
	"accessors":[
		{
			"bufferView":0,
			"componentType":5126,
			"count":6883,
			"max":[
				3.350282669067383,
				7.73043966293335,
				3.895071506500244
			],
			"min":[
				-3.3788723945617676,
				0.01061372272670269,
				-3.8904922008514404
			],
			"type":"VEC3"
		},
		{
			"bufferView":1,
			"componentType":5126,
			"count":6883,
			"type":"VEC3"
		},
		{
			"bufferView":2,
			"componentType":5126,
			"count":6883,
			"type":"VEC2"
		},
		{
			"bufferView":3,
			"componentType":5123,
			"count":22065,
			"type":"SCALAR"
		}
	],
	"bufferViews":[
		{
			"buffer":0,
			"byteLength":82596,
			"byteOffset":0,
			"target":34962
		},
		{
			"buffer":0,
			"byteLength":82596,
			"byteOffset":82596,
			"target":34962
		},
		{
			"buffer":0,
			"byteLength":55064,
			"byteOffset":165192,
			"target":34962
		},
		{
			"buffer":0,
			"byteLength":44130,
			"byteOffset":220256,
			"target":34963
		}
	],
	"samplers":[
		{
			"magFilter":9729,
			"minFilter":9987
		}
	],
	"buffers":[
		{
			"byteLength":264388,
			"uri":"House_4.bin"
		}
	]
}
