{
	"asset":{
		"generator":"Khronos glTF Blender I/O v4.5.48",
		"version":"2.0"
	},
	"scene":0,
	"scenes":[
		{
			"name":"Scene",
			"nodes":[
				0
			]
		}
	],
	"nodes":[
		{
			"mesh":0,
			"name":"House_3"
		}
	],
	"materials":[
		{
			"doubleSided":true,
			"name":"Mat_House_1-5",
			"pbrMetallicRoughness":{
				"baseColorTexture":{
					"index":0
				},
				"metallicFactor":0,
				"roughnessFactor":0.5
			}
		}
	],
	"meshes":[
		{
			"name":"rpgpp_lt_building_03.001",
			"primitives":[
				{
					"attributes":{
						"POSITION":0,
						"NORMAL":1,
						"TEXCOORD_0":2
					},
					"indices":3,
					"material":0
				}
			]
		}
	],
	"textures":[
		{
			"sampler":0,
			"source":0
		}
	],
	"images":[
		{
			"mimeType":"image/png",
			"name":"rpgpp_lt_tex_a",
			"uri":"textures/rpgpp_lt_tex_a.png"
		}
	],
	"accessors":[
		{
			"bufferView":0,
			"componentType":5126,
			"count":11092,
			"max":[
				5.641843318939209,
				8.569802284240723,
				3.1167192459106445
			],
			"min":[
				-3.9069442749023438,
				0.011404714547097683,
				-3.0766894817352295
			],
			"type":"VEC3"
		},
		{
			"bufferView":1,
			"componentType":5126,
			"count":11092,
			"type":"VEC3"
		},
		{
			"bufferView":2,
			"componentType":5126,
			"count":11092,
			"type":"VEC2"
		},
		{
			"bufferView":3,
			"componentType":5123,
			"count":22848,
			"type":"SCALAR"
		}
	],
	"bufferViews":[
		{
			"buffer":0,
			"byteLength":133104,
			"byteOffset":0,
			"target":34962
		},
		{
			"buffer":0,
			"byteLength":133104,
			"byteOffset":133104,
			"target":34962
		},
		{
			"buffer":0,
			"byteLength":88736,
			"byteOffset":266208,
			"target":34962
		},
		{
			"buffer":0,
			"byteLength":45696,
			"byteOffset":354944,
			"target":34963
		}
	],
	"samplers":[
		{
			"magFilter":9729,
			"minFilter":9987
		}
	],
	"buffers":[
		{
			"byteLength":400640,
			"uri":"House_3.bin"
		}
	]
}
