{
	"asset":{
		"generator":"Khronos glTF Blender I/O v4.5.48",
		"version":"2.0"
	},
	"scene":0,
	"scenes":[
		{
			"name":"Scene",
			"nodes":[
				0
			]
		}
	],
	"nodes":[
		{
			"mesh":0,
			"name":"House_5"
		}
	],
	"materials":[
		{
			"doubleSided":true,
			"name":"Mat_House_1-5",
			"pbrMetallicRoughness":{
				"baseColorTexture":{
					"index":0
				},
				"metallicFactor":0,
				"roughnessFactor":0.5
			}
		}
	],
	"meshes":[
		{
			"name":"rpgpp_lt_building_05.001",
			"primitives":[
				{
					"attributes":{
						"POSITION":0,
						"NORMAL":1,
						"TEXCOORD_0":2
					},
					"indices":3,
					"material":0
				}
			]
		}
	],
	"textures":[
		{
			"sampler":0,
			"source":0
		}
	],
	"images":[
		{
			"mimeType":"image/png",
			"name":"rpgpp_lt_tex_a",
			"uri":"textures/rpgpp_lt_tex_a.png"
		}
	],
	"accessors":[
		{
			"bufferView":0,
			"componentType":5126,
			"count":6616,
			"max":[
				4.646094799041748,
				7.9568610191345215,
				4.4829840660095215
			],
			"min":[
				-4.363842964172363,
				0.006996084004640579,
				-4.562518119812012
			],
			"type":"VEC3"
		},
		{
			"bufferView":1,
			"componentType":5126,
			"count":6616,
			"type":"VEC3"
		},
		{
			"bufferView":2,
			"componentType":5126,
			"count":6616,
			"type":"VEC2"
		},
		{
			"bufferView":3,
			"componentType":5123,
			"count":21252,
			"type":"SCALAR"
		}
	],
	"bufferViews":[
		{
			"buffer":0,
			"byteLength":79392,
			"byteOffset":0,
			"target":34962
		},
		{
			"buffer":0,
			"byteLength":79392,
			"byteOffset":79392,
			"target":34962
		},
		{
			"buffer":0,
			"byteLength":52928,
			"byteOffset":158784,
			"target":34962
		},
		{
			"buffer":0,
			"byteLength":42504,
			"byteOffset":211712,
			"target":34963
		}
	],
	"samplers":[
		{
			"magFilter":9729,
			"minFilter":9987
		}
	],
	"buffers":[
		{
			"byteLength":254216,
			"uri":"House_5.bin"
		}
	]
}
