{
	"asset":{
		"generator":"Khronos glTF Blender I/O v4.5.48",
		"version":"2.0"
	},
	"scene":0,
	"scenes":[
		{
			"name":"Scene",
			"nodes":[
				0
			]
		}
	],
	"nodes":[
		{
			"mesh":0,
			"name":"House_2"
		}
	],
	"materials":[
		{
			"doubleSided":true,
			"name":"Mat_House_1-5",
			"pbrMetallicRoughness":{
				"baseColorTexture":{
					"index":0
				},
				"metallicFactor":0,
				"roughnessFactor":0.5
			}
		}
	],
	"meshes":[
		{
			"name":"rpgpp_lt_building_02.001",
			"primitives":[
				{
					"attributes":{
						"POSITION":0,
						"NORMAL":1,
						"TEXCOORD_0":2
					},
					"indices":3,
					"material":0
				}
			]
		}
	],
	"textures":[
		{
			"sampler":0,
			"source":0
		}
	],
	"images":[
		{
			"mimeType":"image/png",
			"name":"rpgpp_lt_tex_a",
			"uri":"textures/rpgpp_lt_tex_a.png"
		}
	],
	"accessors":[
		{
			"bufferView":0,
			"componentType":5126,
			"count":2098,
			"max":[
				3.4853763580322266,
				5.141299724578857,
				3.4083523750305176
			],
			"min":[
				-3.243779420852661,
				0.013302045874297619,
				-3.8428409099578857
			],
			"type":"VEC3"
		},
		{
			"bufferView":1,
			"componentType":5126,
			"count":2098,
			"type":"VEC3"
		},
		{
			"bufferView":2,
			"componentType":5126,
			"count":2098,
			"type":"VEC2"
		},
		{
			"bufferView":3,
			"componentType":5123,
			"count":6693,
			"type":"SCALAR"
		}
	],
	"bufferViews":[
		{
			"buffer":0,
			"byteLength":25176,
			"byteOffset":0,
			"target":34962
		},
		{
			"buffer":0,
			"byteLength":25176,
			"byteOffset":25176,
			"target":34962
		},
		{
			"buffer":0,
			"byteLength":16784,
			"byteOffset":50352,
			"target":34962
		},
		{
			"buffer":0,
			"byteLength":13386,
			"byteOffset":67136,
			"target":34963
		}
	],
	"samplers":[
		{
			"magFilter":9729,
			"minFilter":9987
		}
	],
	"buffers":[
		{
			"byteLength":80524,
			"uri":"House_2.bin"
		}
	]
}
