{
	"asset":{
		"generator":"Khronos glTF Blender I/O v4.5.48",
		"version":"2.0"
	},
	"scene":0,
	"scenes":[
		{
			"name":"Scene",
			"nodes":[
				0
			]
		}
	],
	"nodes":[
		{
			"mesh":0,
			"name":"House_1"
		}
	],
	"materials":[
		{
			"doubleSided":true,
			"name":"Mat_House_1-5",
			"pbrMetallicRoughness":{
				"baseColorTexture":{
					"index":0
				},
				"metallicFactor":0,
				"roughnessFactor":0.5
			}
		}
	],
	"meshes":[
		{
			"name":"rpgpp_lt_building_01.001",
			"primitives":[
				{
					"attributes":{
						"POSITION":0,
						"NORMAL":1,
						"TEXCOORD_0":2
					},
					"indices":3,
					"material":0
				}
			]
		}
	],
	"textures":[
		{
			"sampler":0,
			"source":0
		}
	],
	"images":[
		{
			"mimeType":"image/png",
			"name":"rpgpp_lt_tex_a",
			"uri":"textures/rpgpp_lt_tex_a.png"
		}
	],
	"accessors":[
		{
			"bufferView":0,
			"componentType":5126,
			"count":8749,
			"max":[
				3.2879998683929443,
				8.152304649353027,
				4.953207015991211
			],
			"min":[
				-3.4359188079833984,
				0.010614441707730293,
				-5.737054824829102
			],
			"type":"VEC3"
		},
		{
			"bufferView":1,
			"componentType":5126,
			"count":8749,
			"type":"VEC3"
		},
		{
			"bufferView":2,
			"componentType":5126,
			"count":8749,
			"type":"VEC2"
		},
		{
			"bufferView":3,
			"componentType":5123,
			"count":26919,
			"type":"SCALAR"
		}
	],
	"bufferViews":[
		{
			"buffer":0,
			"byteLength":104988,
			"byteOffset":0,
			"target":34962
		},
		{
			"buffer":0,
			"byteLength":104988,
			"byteOffset":104988,
			"target":34962
		},
		{
			"buffer":0,
			"byteLength":69992,
			"byteOffset":209976,
			"target":34962
		},
		{
			"buffer":0,
			"byteLength":53838,
			"byteOffset":279968,
			"target":34963
		}
	],
	"samplers":[
		{
			"magFilter":9729,
			"minFilter":9987
		}
	],
	"buffers":[
		{
			"byteLength":333808,
			"uri":"House_1.bin"
		}
	]
}
