{
	"asset":{
		"generator":"Khronos glTF Blender I/O v4.5.48",
		"version":"2.0"
	},
	"scene":0,
	"scenes":[
		{
			"name":"Scene",
			"nodes":[
				0
			]
		}
	],
	"nodes":[
		{
			"mesh":0,
			"name":"Log_1"
		}
	],
	"materials":[
		{
			"doubleSided":true,
			"name":"Tree_wood",
			"pbrMetallicRoughness":{
				"baseColorFactor":[
					0.21403329074382782,
					0.04623707756400108,
					0.013290640898048878,
					1
				],
				"metallicFactor":0,
				"roughnessFactor":0.699999988079071
			}
		},
		{
			"doubleSided":true,
			"name":"Tree_wood_inner.1",
			"pbrMetallicRoughness":{
				"baseColorFactor":[
					0.40456071496009827,
					0.18069316446781158,
					0.058546509593725204,
					1
				],
				"metallicFactor":0,
				"roughnessFactor":0.5
			}
		}
	],
	"meshes":[
		{
			"name":"Log.1",
			"primitives":[
				{
					"attributes":{
						"POSITION":0,
						"NORMAL":1,
						"TEXCOORD_0":2
					},
					"indices":3,
					"material":0
				},
				{
					"attributes":{
						"POSITION":4,
						"NORMAL":5,
						"TEXCOORD_0":6
					},
					"indices":7,
					"material":1
				}
			]
		}
	],
	"accessors":[
		{
			"bufferView":0,
			"componentType":5126,
			"count":162,
			"max":[
				0.06761686503887177,
				0.09507962316274643,
				0.6084048748016357
			],
			"min":[
				-0.04760684072971344,
				-0.00112725340295583,
				-0.5286954045295715
			],
			"type":"VEC3"
		},
		{
			"bufferView":1,
			"componentType":5126,
			"count":162,
			"type":"VEC3"
		},
		{
			"bufferView":2,
			"componentType":5126,
			"count":162,
			"type":"VEC2"
		},
		{
			"bufferView":3,
			"componentType":5123,
			"count":198,
			"type":"SCALAR"
		},
		{
			"bufferView":4,
			"componentType":5126,
			"count":13,
			"max":[
				0.02942429855465889,
				0.07515066862106323,
				-0.5286954045295715
			],
			"min":[
				-0.028088411316275597,
				0.008741083554923534,
				-0.5286954045295715
			],
			"type":"VEC3"
		},
		{
			"bufferView":5,
			"componentType":5126,
			"count":13,
			"type":"VEC3"
		},
		{
			"bufferView":6,
			"componentType":5126,
			"count":13,
			"type":"VEC2"
		},
		{
			"bufferView":7,
			"componentType":5123,
			"count":18,
			"type":"SCALAR"
		}
	],
	"bufferViews":[
		{
			"buffer":0,
			"byteLength":1944,
			"byteOffset":0,
			"target":34962
		},
		{
			"buffer":0,
			"byteLength":1944,
			"byteOffset":1944,
			"target":34962
		},
		{
			"buffer":0,
			"byteLength":1296,
			"byteOffset":3888,
			"target":34962
		},
		{
			"buffer":0,
			"byteLength":396,
			"byteOffset":5184,
			"target":34963
		},
		{
			"buffer":0,
			"byteLength":156,
			"byteOffset":5580,
			"target":34962
		},
		{
			"buffer":0,
			"byteLength":156,
			"byteOffset":5736,
			"target":34962
		},
		{
			"buffer":0,
			"byteLength":104,
			"byteOffset":5892,
			"target":34962
		},
		{
			"buffer":0,
			"byteLength":36,
			"byteOffset":5996,
			"target":34963
		}
	],
	"buffers":[
		{
			"byteLength":6032,
			"uri":"Log_1.bin"
		}
	]
}
