{
	"asset":{
		"generator":"Khronos glTF Blender I/O v4.5.48",
		"version":"2.0"
	},
	"scene":0,
	"scenes":[
		{
			"name":"Scene",
			"nodes":[
				0
			]
		}
	],
	"nodes":[
		{
			"mesh":0,
			"name":"Log_2"
		}
	],
	"materials":[
		{
			"doubleSided":true,
			"name":"Tree_wood.001",
			"pbrMetallicRoughness":{
				"baseColorFactor":[
					0.21403329074382782,
					0.04623707756400108,
					0.013290640898048878,
					1
				],
				"metallicFactor":0,
				"roughnessFactor":0.699999988079071
			}
		},
		{
			"doubleSided":true,
			"name":"Tree_wood_inner.002",
			"pbrMetallicRoughness":{
				"baseColorFactor":[
					0.40456071496009827,
					0.18069316446781158,
					0.058546509593725204,
					1
				],
				"metallicFactor":0,
				"roughnessFactor":0.5
			}
		}
	],
	"meshes":[
		{
			"name":"Log.001",
			"primitives":[
				{
					"attributes":{
						"POSITION":0,
						"NORMAL":1,
						"TEXCOORD_0":2
					},
					"indices":3,
					"material":0
				},
				{
					"attributes":{
						"POSITION":4,
						"NORMAL":5,
						"TEXCOORD_0":6
					},
					"indices":7,
					"material":1
				}
			]
		}
	],
	"accessors":[
		{
			"bufferView":0,
			"componentType":5126,
			"count":321,
			"max":[
				0.4486503601074219,
				0.17430157959461212,
				1.0922703742980957
			],
			"min":[
				-0.08474349975585938,
				-0.0004912587464787066,
				-0.8114738464355469
			],
			"type":"VEC3"
		},
		{
			"bufferView":1,
			"componentType":5126,
			"count":321,
			"type":"VEC3"
		},
		{
			"bufferView":2,
			"componentType":5126,
			"count":321,
			"type":"VEC2"
		},
		{
			"bufferView":3,
			"componentType":5123,
			"count":366,
			"type":"SCALAR"
		},
		{
			"bufferView":4,
			"componentType":5126,
			"count":13,
			"max":[
				0.045162200927734375,
				0.11534580588340759,
				-0.8114738464355469
			],
			"min":[
				-0.04311180114746094,
				0.013416345231235027,
				-0.8114738464355469
			],
			"type":"VEC3"
		},
		{
			"bufferView":5,
			"componentType":5126,
			"count":13,
			"type":"VEC3"
		},
		{
			"bufferView":6,
			"componentType":5126,
			"count":13,
			"type":"VEC2"
		},
		{
			"bufferView":7,
			"componentType":5123,
			"count":18,
			"type":"SCALAR"
		}
	],
	"bufferViews":[
		{
			"buffer":0,
			"byteLength":3852,
			"byteOffset":0,
			"target":34962
		},
		{
			"buffer":0,
			"byteLength":3852,
			"byteOffset":3852,
			"target":34962
		},
		{
			"buffer":0,
			"byteLength":2568,
			"byteOffset":7704,
			"target":34962
		},
		{
			"buffer":0,
			"byteLength":732,
			"byteOffset":10272,
			"target":34963
		},
		{
			"buffer":0,
			"byteLength":156,
			"byteOffset":11004,
			"target":34962
		},
		{
			"buffer":0,
			"byteLength":156,
			"byteOffset":11160,
			"target":34962
		},
		{
			"buffer":0,
			"byteLength":104,
			"byteOffset":11316,
			"target":34962
		},
		{
			"buffer":0,
			"byteLength":36,
			"byteOffset":11420,
			"target":34963
		}
	],
	"buffers":[
		{
			"byteLength":11456,
			"uri":"Log_2.bin"
		}
	]
}
