{
	"asset":{
		"generator":"Khronos glTF Blender I/O v4.5.48",
		"version":"2.0"
	},
	"scene":0,
	"scenes":[
		{
			"name":"Scene",
			"nodes":[
				0
			]
		}
	],
	"nodes":[
		{
			"mesh":0,
			"name":"Log_3"
		}
	],
	"materials":[
		{
			"doubleSided":true,
			"name":"Tree_wood.002",
			"pbrMetallicRoughness":{
				"baseColorFactor":[
					0.21403329074382782,
					0.04623707756400108,
					0.013290640898048878,
					1
				],
				"metallicFactor":0,
				"roughnessFactor":0.699999988079071
			}
		},
		{
			"doubleSided":true,
			"name":"Tree_wood_inner.003",
			"pbrMetallicRoughness":{
				"baseColorFactor":[
					0.40456071496009827,
					0.18069316446781158,
					0.058546509593725204,
					1
				],
				"metallicFactor":0,
				"roughnessFactor":0.5
			}
		}
	],
	"meshes":[
		{
			"name":"Log.3",
			"primitives":[
				{
					"attributes":{
						"POSITION":0,
						"NORMAL":1,
						"TEXCOORD_0":2
					},
					"indices":3,
					"material":0
				},
				{
					"attributes":{
						"POSITION":4,
						"NORMAL":5,
						"TEXCOORD_0":6
					},
					"indices":7,
					"material":1
				}
			]
		}
	],
	"accessors":[
		{
			"bufferView":0,
			"componentType":5126,
			"count":682,
			"max":[
				0.36996203660964966,
				0.17730721831321716,
				1.6792494058609009
			],
			"min":[
				-0.3927207589149475,
				-0.0005636438727378845,
				-1.3037865161895752
			],
			"type":"VEC3"
		},
		{
			"bufferView":1,
			"componentType":5126,
			"count":682,
			"type":"VEC3"
		},
		{
			"bufferView":2,
			"componentType":5126,
			"count":682,
			"type":"VEC2"
		},
		{
			"bufferView":3,
			"componentType":5123,
			"count":822,
			"type":"SCALAR"
		},
		{
			"bufferView":4,
			"componentType":5126,
			"count":34,
			"max":[
				0.3573576807975769,
				0.13632985949516296,
				0.23999524116516113
			],
			"min":[
				-0.02800898440182209,
				0.009184572845697403,
				-1.2804877758026123
			],
			"type":"VEC3"
		},
		{
			"bufferView":5,
			"componentType":5126,
			"count":34,
			"type":"VEC3"
		},
		{
			"bufferView":6,
			"componentType":5126,
			"count":34,
			"type":"VEC2"
		},
		{
			"bufferView":7,
			"componentType":5123,
			"count":48,
			"type":"SCALAR"
		}
	],
	"bufferViews":[
		{
			"buffer":0,
			"byteLength":8184,
			"byteOffset":0,
			"target":34962
		},
		{
			"buffer":0,
			"byteLength":8184,
			"byteOffset":8184,
			"target":34962
		},
		{
			"buffer":0,
			"byteLength":5456,
			"byteOffset":16368,
			"target":34962
		},
		{
			"buffer":0,
			"byteLength":1644,
			"byteOffset":21824,
			"target":34963
		},
		{
			"buffer":0,
			"byteLength":408,
			"byteOffset":23468,
			"target":34962
		},
		{
			"buffer":0,
			"byteLength":408,
			"byteOffset":23876,
			"target":34962
		},
		{
			"buffer":0,
			"byteLength":272,
			"byteOffset":24284,
			"target":34962
		},
		{
			"buffer":0,
			"byteLength":96,
			"byteOffset":24556,
			"target":34963
		}
	],
	"buffers":[
		{
			"byteLength":24652,
			"uri":"Log_3.bin"
		}
	]
}
