{
	"asset":{
		"generator":"Khronos glTF Blender I/O v4.5.48",
		"version":"2.0"
	},
	"scene":0,
	"scenes":[
		{
			"name":"Scene",
			"nodes":[
				0
			]
		}
	],
	"nodes":[
		{
			"mesh":0,
			"name":"Log_4"
		}
	],
	"materials":[
		{
			"doubleSided":true,
			"name":"Tree_wood.003",
			"pbrMetallicRoughness":{
				"baseColorFactor":[
					0.21403329074382782,
					0.04623707756400108,
					0.013290640898048878,
					1
				],
				"metallicFactor":0,
				"roughnessFactor":0.699999988079071
			}
		},
		{
			"doubleSided":true,
			"name":"Tree_wood_inner.004",
			"pbrMetallicRoughness":{
				"baseColorFactor":[
					0.40456071496009827,
					0.18069316446781158,
					0.058546509593725204,
					1
				],
				"metallicFactor":0,
				"roughnessFactor":0.5
			}
		}
	],
	"meshes":[
		{
			"name":"Log.006",
			"primitives":[
				{
					"attributes":{
						"POSITION":0,
						"NORMAL":1,
						"TEXCOORD_0":2
					},
					"indices":3,
					"material":0
				},
				{
					"attributes":{
						"POSITION":4,
						"NORMAL":5,
						"TEXCOORD_0":6
					},
					"indices":7,
					"material":1
				}
			]
		}
	],
	"accessors":[
		{
			"bufferView":0,
			"componentType":5126,
			"count":688,
			"max":[
				1.010740876197815,
				0.4452374577522278,
				2.6349287033081055
			],
			"min":[
				-0.17343899607658386,
				-0.005939096212387085,
				-2.0964298248291016
			],
			"type":"VEC3"
		},
		{
			"bufferView":1,
			"componentType":5126,
			"count":688,
			"type":"VEC3"
		},
		{
			"bufferView":2,
			"componentType":5126,
			"count":688,
			"type":"VEC2"
		},
		{
			"bufferView":3,
			"componentType":5123,
			"count":864,
			"type":"SCALAR"
		},
		{
			"bufferView":4,
			"componentType":5126,
			"count":17,
			"max":[
				0.16717417538166046,
				0.2435092329978943,
				-2.0088112354278564
			],
			"min":[
				-0.04973024129867554,
				0.029135197401046753,
				-2.0503671169281006
			],
			"type":"VEC3"
		},
		{
			"bufferView":5,
			"componentType":5126,
			"count":17,
			"type":"VEC3"
		},
		{
			"bufferView":6,
			"componentType":5126,
			"count":17,
			"type":"VEC2"
		},
		{
			"bufferView":7,
			"componentType":5123,
			"count":24,
			"type":"SCALAR"
		}
	],
	"bufferViews":[
		{
			"buffer":0,
			"byteLength":8256,
			"byteOffset":0,
			"target":34962
		},
		{
			"buffer":0,
			"byteLength":8256,
			"byteOffset":8256,
			"target":34962
		},
		{
			"buffer":0,
			"byteLength":5504,
			"byteOffset":16512,
			"target":34962
		},
		{
			"buffer":0,
			"byteLength":1728,
			"byteOffset":22016,
			"target":34963
		},
		{
			"buffer":0,
			"byteLength":204,
			"byteOffset":23744,
			"target":34962
		},
		{
			"buffer":0,
			"byteLength":204,
			"byteOffset":23948,
			"target":34962
		},
		{
			"buffer":0,
			"byteLength":136,
			"byteOffset":24152,
			"target":34962
		},
		{
			"buffer":0,
			"byteLength":48,
			"byteOffset":24288,
			"target":34963
		}
	],
	"buffers":[
		{
			"byteLength":24336,
			"uri":"Log_4.bin"
		}
	]
}
