{
	"asset":{
		"generator":"Khronos glTF Blender I/O v4.5.48",
		"version":"2.0"
	},
	"scene":0,
	"scenes":[
		{
			"name":"Scene",
			"nodes":[
				0
			]
		}
	],
	"nodes":[
		{
			"mesh":0,
			"name":"Log_5"
		}
	],
	"materials":[
		{
			"doubleSided":true,
			"name":"Tree_wood.004",
			"pbrMetallicRoughness":{
				"baseColorFactor":[
					0.21403329074382782,
					0.04623707756400108,
					0.013290640898048878,
					1
				],
				"metallicFactor":0,
				"roughnessFactor":0.699999988079071
			}
		},
		{
			"doubleSided":true,
			"name":"Tree_wood_inner.005",
			"pbrMetallicRoughness":{
				"baseColorFactor":[
					0.40456071496009827,
					0.18069316446781158,
					0.058546509593725204,
					1
				],
				"metallicFactor":0,
				"roughnessFactor":0.5
			}
		},
		{
			"doubleSided":true,
			"name":"Tree_wood_inner.2",
			"pbrMetallicRoughness":{
				"baseColorFactor":[
					0.3239920139312744,
					0.10891197621822357,
					0.02812877669930458,
					1
				],
				"metallicFactor":0,
				"roughnessFactor":0.5
			}
		}
	],
	"meshes":[
		{
			"name":"Log.5",
			"primitives":[
				{
					"attributes":{
						"POSITION":0,
						"NORMAL":1,
						"TEXCOORD_0":2
					},
					"indices":3,
					"material":0
				},
				{
					"attributes":{
						"POSITION":4,
						"NORMAL":5,
						"TEXCOORD_0":6
					},
					"indices":7,
					"material":1
				},
				{
					"attributes":{
						"POSITION":8,
						"NORMAL":9,
						"TEXCOORD_0":10
					},
					"indices":11,
					"material":2
				}
			]
		}
	],
	"accessors":[
		{
			"bufferView":0,
			"componentType":5126,
			"count":704,
			"max":[
				0.4937857985496521,
				0.7646510601043701,
				2.025182008743286
			],
			"min":[
				-0.7958691120147705,
				-0.014148473739624023,
				-2.011962890625
			],
			"type":"VEC3"
		},
		{
			"bufferView":1,
			"componentType":5126,
			"count":704,
			"type":"VEC3"
		},
		{
			"bufferView":2,
			"componentType":5126,
			"count":704,
			"type":"VEC2"
		},
		{
			"bufferView":3,
			"componentType":5123,
			"count":822,
			"type":"SCALAR"
		},
		{
			"bufferView":4,
			"componentType":5126,
			"count":97,
			"max":[
				0.4852243661880493,
				0.7548282146453857,
				1.6872305870056152
			],
			"min":[
				-0.7051036953926086,
				0.0424036979675293,
				-1.629607915878296
			],
			"type":"VEC3"
		},
		{
			"bufferView":5,
			"componentType":5126,
			"count":97,
			"type":"VEC3"
		},
		{
			"bufferView":6,
			"componentType":5126,
			"count":97,
			"type":"VEC2"
		},
		{
			"bufferView":7,
			"componentType":5123,
			"count":150,
			"type":"SCALAR"
		},
		{
			"bufferView":8,
			"componentType":5126,
			"count":38,
			"max":[
				-0.007455714046955109,
				0.38968825340270996,
				1.6872305870056152
			],
			"min":[
				-0.2019137144088745,
				0.23696088790893555,
				-1.629607915878296
			],
			"type":"VEC3"
		},
		{
			"bufferView":9,
			"componentType":5126,
			"count":38,
			"type":"VEC3"
		},
		{
			"bufferView":10,
			"componentType":5126,
			"count":38,
			"type":"VEC2"
		},
		{
			"bufferView":11,
			"componentType":5123,
			"count":54,
			"type":"SCALAR"
		}
	],
	"bufferViews":[
		{
			"buffer":0,
			"byteLength":8448,
			"byteOffset":0,
			"target":34962
		},
		{
			"buffer":0,
			"byteLength":8448,
			"byteOffset":8448,
			"target":34962
		},
		{
			"buffer":0,
			"byteLength":5632,
			"byteOffset":16896,
			"target":34962
		},
		{
			"buffer":0,
			"byteLength":1644,
			"byteOffset":22528,
			"target":34963
		},
		{
			"buffer":0,
			"byteLength":1164,
			"byteOffset":24172,
			"target":34962
		},
		{
			"buffer":0,
			"byteLength":1164,
			"byteOffset":25336,
			"target":34962
		},
		{
			"buffer":0,
			"byteLength":776,
			"byteOffset":26500,
			"target":34962
		},
		{
			"buffer":0,
			"byteLength":300,
			"byteOffset":27276,
			"target":34963
		},
		{
			"buffer":0,
			"byteLength":456,
			"byteOffset":27576,
			"target":34962
		},
		{
			"buffer":0,
			"byteLength":456,
			"byteOffset":28032,
			"target":34962
		},
		{
			"buffer":0,
			"byteLength":304,
			"byteOffset":28488,
			"target":34962
		},
		{
			"buffer":0,
			"byteLength":108,
			"byteOffset":28792,
			"target":34963
		}
	],
	"buffers":[
		{
			"byteLength":28900,
			"uri":"Log_5.bin"
		}
	]
}
