{
	"asset":{
		"generator":"Khronos glTF Blender I/O v4.5.48",
		"version":"2.0"
	},
	"extensionsUsed":[
		"KHR_materials_specular"
	],
	"scene":0,
	"scenes":[
		{
			"name":"Scene",
			"nodes":[
				0
			]
		}
	],
	"nodes":[
		{
			"mesh":0,
			"name":"Tree_38"
		}
	],
	"materials":[
		{
			"doubleSided":true,
			"extensions":{
				"KHR_materials_specular":{
					"specularFactor":0
				}
			},
			"name":"tree_color",
			"pbrMetallicRoughness":{
				"baseColorTexture":{
					"index":0
				},
				"roughnessFactor":0.858578622341156
			}
		}
	],
	"meshes":[
		{
			"name":"Mesh.037",
			"primitives":[
				{
					"attributes":{
						"POSITION":0,
						"NORMAL":1,
						"TEXCOORD_0":2
					},
					"indices":3,
					"material":0
				}
			]
		}
	],
	"textures":[
		{
			"sampler":0,
			"source":0
		}
	],
	"images":[
		{
			"mimeType":"image/jpeg",
			"name":"color_1024x1024",
			"uri":"textures/color_1024x1024.jpg"
		}
	],
	"accessors":[
		{
			"bufferView":0,
			"componentType":5126,
			"count":638,
			"max":[
				0.48229196667671204,
				1.5769528150558472,
				0.536298930644989
			],
			"min":[
				-0.5084342956542969,
				-1.912695353212257e-07,
				-0.5468618273735046
			],
			"type":"VEC3"
		},
		{
			"bufferView":1,
			"componentType":5126,
			"count":638,
			"type":"VEC3"
		},
		{
			"bufferView":2,
			"componentType":5126,
			"count":638,
			"type":"VEC2"
		},
		{
			"bufferView":3,
			"componentType":5123,
			"count":714,
			"type":"SCALAR"
		}
	],
	"bufferViews":[
		{
			"buffer":0,
			"byteLength":7656,
			"byteOffset":0,
			"target":34962
		},
		{
			"buffer":0,
			"byteLength":7656,
			"byteOffset":7656,
			"target":34962
		},
		{
			"buffer":0,
			"byteLength":5104,
			"byteOffset":15312,
			"target":34962
		},
		{
			"buffer":0,
			"byteLength":1428,
			"byteOffset":20416,
			"target":34963
		}
	],
	"samplers":[
		{
			"magFilter":9729,
			"minFilter":9987
		}
	],
	"buffers":[
		{
			"byteLength":21844,
			"uri":"Tree_38.bin"
		}
	]
}
