{
	"asset":{
		"generator":"Khronos glTF Blender I/O v4.5.48",
		"version":"2.0"
	},
	"extensionsUsed":[
		"KHR_materials_specular"
	],
	"scene":0,
	"scenes":[
		{
			"name":"Scene",
			"nodes":[
				0
			]
		}
	],
	"nodes":[
		{
			"mesh":0,
			"name":"Tree_114"
		}
	],
	"materials":[
		{
			"doubleSided":true,
			"extensions":{
				"KHR_materials_specular":{
					"specularFactor":0
				}
			},
			"name":"tree_color",
			"pbrMetallicRoughness":{
				"baseColorTexture":{
					"index":0
				},
				"roughnessFactor":0.858578622341156
			}
		}
	],
	"meshes":[
		{
			"name":"Mesh.113",
			"primitives":[
				{
					"attributes":{
						"POSITION":0,
						"NORMAL":1,
						"TEXCOORD_0":2
					},
					"indices":3,
					"material":0
				}
			]
		}
	],
	"textures":[
		{
			"sampler":0,
			"source":0
		}
	],
	"images":[
		{
			"mimeType":"image/jpeg",
			"name":"color_1024x1024",
			"uri":"textures/color_1024x1024.jpg"
		}
	],
	"accessors":[
		{
			"bufferView":0,
			"componentType":5126,
			"count":1344,
			"max":[
				0.6921694278717041,
				2.4856984615325928,
				0.41467103362083435
			],
			"min":[
				-0.6985324621200562,
				-3.3184219816462246e-09,
				-0.4466482698917389
			],
			"type":"VEC3"
		},
		{
			"bufferView":1,
			"componentType":5126,
			"count":1344,
			"type":"VEC3"
		},
		{
			"bufferView":2,
			"componentType":5126,
			"count":1344,
			"type":"VEC2"
		},
		{
			"bufferView":3,
			"componentType":5123,
			"count":2232,
			"type":"SCALAR"
		}
	],
	"bufferViews":[
		{
			"buffer":0,
			"byteLength":16128,
			"byteOffset":0,
			"target":34962
		},
		{
			"buffer":0,
			"byteLength":16128,
			"byteOffset":16128,
			"target":34962
		},
		{
			"buffer":0,
			"byteLength":10752,
			"byteOffset":32256,
			"target":34962
		},
		{
			"buffer":0,
			"byteLength":4464,
			"byteOffset":43008,
			"target":34963
		}
	],
	"samplers":[
		{
			"magFilter":9729,
			"minFilter":9987
		}
	],
	"buffers":[
		{
			"byteLength":47472,
			"uri":"Tree_114.bin"
		}
	]
}
