{
	"asset":{
		"generator":"Khronos glTF Blender I/O v4.5.48",
		"version":"2.0"
	},
	"extensionsUsed":[
		"KHR_materials_specular"
	],
	"scene":0,
	"scenes":[
		{
			"name":"Scene",
			"nodes":[
				0
			]
		}
	],
	"nodes":[
		{
			"mesh":0,
			"name":"Tree_56"
		}
	],
	"materials":[
		{
			"doubleSided":true,
			"extensions":{
				"KHR_materials_specular":{
					"specularFactor":0
				}
			},
			"name":"tree_color",
			"pbrMetallicRoughness":{
				"baseColorTexture":{
					"index":0
				},
				"roughnessFactor":0.858578622341156
			}
		}
	],
	"meshes":[
		{
			"name":"Mesh.055",
			"primitives":[
				{
					"attributes":{
						"POSITION":0,
						"NORMAL":1,
						"TEXCOORD_0":2
					},
					"indices":3,
					"material":0
				}
			]
		}
	],
	"textures":[
		{
			"sampler":0,
			"source":0
		}
	],
	"images":[
		{
			"mimeType":"image/jpeg",
			"name":"color_1024x1024",
			"uri":"textures/color_1024x1024.jpg"
		}
	],
	"accessors":[
		{
			"bufferView":0,
			"componentType":5126,
			"count":1834,
			"max":[
				1.120532512664795,
				2.951355457305908,
				0.4600391089916229
			],
			"min":[
				-0.6872931718826294,
				1.802692679575557e-07,
				-0.6331886053085327
			],
			"type":"VEC3"
		},
		{
			"bufferView":1,
			"componentType":5126,
			"count":1834,
			"type":"VEC3"
		},
		{
			"bufferView":2,
			"componentType":5126,
			"count":1834,
			"type":"VEC2"
		},
		{
			"bufferView":3,
			"componentType":5123,
			"count":2760,
			"type":"SCALAR"
		}
	],
	"bufferViews":[
		{
			"buffer":0,
			"byteLength":22008,
			"byteOffset":0,
			"target":34962
		},
		{
			"buffer":0,
			"byteLength":22008,
			"byteOffset":22008,
			"target":34962
		},
		{
			"buffer":0,
			"byteLength":14672,
			"byteOffset":44016,
			"target":34962
		},
		{
			"buffer":0,
			"byteLength":5520,
			"byteOffset":58688,
			"target":34963
		}
	],
	"samplers":[
		{
			"magFilter":9729,
			"minFilter":9987
		}
	],
	"buffers":[
		{
			"byteLength":64208,
			"uri":"Tree_56.bin"
		}
	]
}
