{
	"asset":{
		"generator":"Khronos glTF Blender I/O v4.5.48",
		"version":"2.0"
	},
	"extensionsUsed":[
		"KHR_materials_specular"
	],
	"scene":0,
	"scenes":[
		{
			"name":"Scene",
			"nodes":[
				0
			]
		}
	],
	"nodes":[
		{
			"mesh":0,
			"name":"Tree_60"
		}
	],
	"materials":[
		{
			"doubleSided":true,
			"extensions":{
				"KHR_materials_specular":{
					"specularFactor":0
				}
			},
			"name":"tree_color",
			"pbrMetallicRoughness":{
				"baseColorTexture":{
					"index":0
				},
				"roughnessFactor":0.858578622341156
			}
		}
	],
	"meshes":[
		{
			"name":"Mesh.059",
			"primitives":[
				{
					"attributes":{
						"POSITION":0,
						"NORMAL":1,
						"TEXCOORD_0":2
					},
					"indices":3,
					"material":0
				}
			]
		}
	],
	"textures":[
		{
			"sampler":0,
			"source":0
		}
	],
	"images":[
		{
			"mimeType":"image/jpeg",
			"name":"color_1024x1024",
			"uri":"textures/color_1024x1024.jpg"
		}
	],
	"accessors":[
		{
			"bufferView":0,
			"componentType":5126,
			"count":1748,
			"max":[
				2.1835317611694336,
				3.8936429023742676,
				0.9768581986427307
			],
			"min":[
				-1.399486780166626,
				-2.1642667036303465e-07,
				-1.209028959274292
			],
			"type":"VEC3"
		},
		{
			"bufferView":1,
			"componentType":5126,
			"count":1748,
			"type":"VEC3"
		},
		{
			"bufferView":2,
			"componentType":5126,
			"count":1748,
			"type":"VEC2"
		},
		{
			"bufferView":3,
			"componentType":5123,
			"count":2664,
			"type":"SCALAR"
		}
	],
	"bufferViews":[
		{
			"buffer":0,
			"byteLength":20976,
			"byteOffset":0,
			"target":34962
		},
		{
			"buffer":0,
			"byteLength":20976,
			"byteOffset":20976,
			"target":34962
		},
		{
			"buffer":0,
			"byteLength":13984,
			"byteOffset":41952,
			"target":34962
		},
		{
			"buffer":0,
			"byteLength":5328,
			"byteOffset":55936,
			"target":34963
		}
	],
	"samplers":[
		{
			"magFilter":9729,
			"minFilter":9987
		}
	],
	"buffers":[
		{
			"byteLength":61264,
			"uri":"Tree_60.bin"
		}
	]
}
