{
	"asset":{
		"generator":"Khronos glTF Blender I/O v4.5.48",
		"version":"2.0"
	},
	"extensionsUsed":[
		"KHR_materials_specular"
	],
	"scene":0,
	"scenes":[
		{
			"name":"Scene",
			"nodes":[
				0
			]
		}
	],
	"nodes":[
		{
			"mesh":0,
			"name":"Tree_5"
		}
	],
	"materials":[
		{
			"doubleSided":true,
			"extensions":{
				"KHR_materials_specular":{
					"specularFactor":0
				}
			},
			"name":"tree_color",
			"pbrMetallicRoughness":{
				"baseColorTexture":{
					"index":0
				},
				"roughnessFactor":0.858578622341156
			}
		}
	],
	"meshes":[
		{
			"name":"Mesh.004",
			"primitives":[
				{
					"attributes":{
						"POSITION":0,
						"NORMAL":1,
						"TEXCOORD_0":2
					},
					"indices":3,
					"material":0
				}
			]
		}
	],
	"textures":[
		{
			"sampler":0,
			"source":0
		}
	],
	"images":[
		{
			"mimeType":"image/jpeg",
			"name":"color_1024x1024",
			"uri":"textures/color_1024x1024.jpg"
		}
	],
	"accessors":[
		{
			"bufferView":0,
			"componentType":5126,
			"count":624,
			"max":[
				1.5089566707611084,
				3.2425951957702637,
				1.481588363647461
			],
			"min":[
				-1.4738078117370605,
				-1.0423016227889548e-08,
				-1.5011768341064453
			],
			"type":"VEC3"
		},
		{
			"bufferView":1,
			"componentType":5126,
			"count":624,
			"type":"VEC3"
		},
		{
			"bufferView":2,
			"componentType":5126,
			"count":624,
			"type":"VEC2"
		},
		{
			"bufferView":3,
			"componentType":5123,
			"count":1020,
			"type":"SCALAR"
		}
	],
	"bufferViews":[
		{
			"buffer":0,
			"byteLength":7488,
			"byteOffset":0,
			"target":34962
		},
		{
			"buffer":0,
			"byteLength":7488,
			"byteOffset":7488,
			"target":34962
		},
		{
			"buffer":0,
			"byteLength":4992,
			"byteOffset":14976,
			"target":34962
		},
		{
			"buffer":0,
			"byteLength":2040,
			"byteOffset":19968,
			"target":34963
		}
	],
	"samplers":[
		{
			"magFilter":9729,
			"minFilter":9987
		}
	],
	"buffers":[
		{
			"byteLength":22008,
			"uri":"Tree_5.bin"
		}
	]
}
