{
	"asset":{
		"generator":"Khronos glTF Blender I/O v4.5.48",
		"version":"2.0"
	},
	"extensionsUsed":[
		"KHR_materials_specular"
	],
	"scene":0,
	"scenes":[
		{
			"name":"Scene",
			"nodes":[
				0
			]
		}
	],
	"nodes":[
		{
			"mesh":0,
			"name":"Tree_30"
		}
	],
	"materials":[
		{
			"doubleSided":true,
			"extensions":{
				"KHR_materials_specular":{
					"specularFactor":0
				}
			},
			"name":"tree_color",
			"pbrMetallicRoughness":{
				"baseColorTexture":{
					"index":0
				},
				"roughnessFactor":0.858578622341156
			}
		}
	],
	"meshes":[
		{
			"name":"Mesh.029",
			"primitives":[
				{
					"attributes":{
						"POSITION":0,
						"NORMAL":1,
						"TEXCOORD_0":2
					},
					"indices":3,
					"material":0
				}
			]
		}
	],
	"textures":[
		{
			"sampler":0,
			"source":0
		}
	],
	"images":[
		{
			"mimeType":"image/jpeg",
			"name":"color_1024x1024",
			"uri":"textures/color_1024x1024.jpg"
		}
	],
	"accessors":[
		{
			"bufferView":0,
			"componentType":5126,
			"count":312,
			"max":[
				0.4701424837112427,
				1.681826114654541,
				0.3863624632358551
			],
			"min":[
				-0.4181574583053589,
				-6.293009668922878e-09,
				-0.37416884303092957
			],
			"type":"VEC3"
		},
		{
			"bufferView":1,
			"componentType":5126,
			"count":312,
			"type":"VEC3"
		},
		{
			"bufferView":2,
			"componentType":5126,
			"count":312,
			"type":"VEC2"
		},
		{
			"bufferView":3,
			"componentType":5123,
			"count":330,
			"type":"SCALAR"
		}
	],
	"bufferViews":[
		{
			"buffer":0,
			"byteLength":3744,
			"byteOffset":0,
			"target":34962
		},
		{
			"buffer":0,
			"byteLength":3744,
			"byteOffset":3744,
			"target":34962
		},
		{
			"buffer":0,
			"byteLength":2496,
			"byteOffset":7488,
			"target":34962
		},
		{
			"buffer":0,
			"byteLength":660,
			"byteOffset":9984,
			"target":34963
		}
	],
	"samplers":[
		{
			"magFilter":9729,
			"minFilter":9987
		}
	],
	"buffers":[
		{
			"byteLength":10644,
			"uri":"Tree_30.bin"
		}
	]
}
