{
	"asset":{
		"generator":"Khronos glTF Blender I/O v4.5.48",
		"version":"2.0"
	},
	"extensionsUsed":[
		"KHR_materials_specular"
	],
	"scene":0,
	"scenes":[
		{
			"name":"Scene",
			"nodes":[
				0
			]
		}
	],
	"nodes":[
		{
			"mesh":0,
			"name":"Tree_49"
		}
	],
	"materials":[
		{
			"doubleSided":true,
			"extensions":{
				"KHR_materials_specular":{
					"specularFactor":0
				}
			},
			"name":"tree_color",
			"pbrMetallicRoughness":{
				"baseColorTexture":{
					"index":0
				},
				"roughnessFactor":0.858578622341156
			}
		}
	],
	"meshes":[
		{
			"name":"Mesh.048",
			"primitives":[
				{
					"attributes":{
						"POSITION":0,
						"NORMAL":1,
						"TEXCOORD_0":2
					},
					"indices":3,
					"material":0
				}
			]
		}
	],
	"textures":[
		{
			"sampler":0,
			"source":0
		}
	],
	"images":[
		{
			"mimeType":"image/jpeg",
			"name":"color_1024x1024",
			"uri":"textures/color_1024x1024.jpg"
		}
	],
	"accessors":[
		{
			"bufferView":0,
			"componentType":5126,
			"count":1092,
			"max":[
				1.373748779296875,
				3.276746988296509,
				0.7967157363891602
			],
			"min":[
				-1.3138102293014526,
				-1.9803933071216306e-07,
				-0.9574090838432312
			],
			"type":"VEC3"
		},
		{
			"bufferView":1,
			"componentType":5126,
			"count":1092,
			"type":"VEC3"
		},
		{
			"bufferView":2,
			"componentType":5126,
			"count":1092,
			"type":"VEC2"
		},
		{
			"bufferView":3,
			"componentType":5123,
			"count":1212,
			"type":"SCALAR"
		}
	],
	"bufferViews":[
		{
			"buffer":0,
			"byteLength":13104,
			"byteOffset":0,
			"target":34962
		},
		{
			"buffer":0,
			"byteLength":13104,
			"byteOffset":13104,
			"target":34962
		},
		{
			"buffer":0,
			"byteLength":8736,
			"byteOffset":26208,
			"target":34962
		},
		{
			"buffer":0,
			"byteLength":2424,
			"byteOffset":34944,
			"target":34963
		}
	],
	"samplers":[
		{
			"magFilter":9729,
			"minFilter":9987
		}
	],
	"buffers":[
		{
			"byteLength":37368,
			"uri":"Tree_49.bin"
		}
	]
}
