{
	"asset":{
		"generator":"Khronos glTF Blender I/O v4.5.48",
		"version":"2.0"
	},
	"extensionsUsed":[
		"KHR_materials_specular"
	],
	"scene":0,
	"scenes":[
		{
			"name":"Scene",
			"nodes":[
				0
			]
		}
	],
	"nodes":[
		{
			"mesh":0,
			"name":"Tree_50"
		}
	],
	"materials":[
		{
			"doubleSided":true,
			"extensions":{
				"KHR_materials_specular":{
					"specularFactor":0
				}
			},
			"name":"tree_color",
			"pbrMetallicRoughness":{
				"baseColorTexture":{
					"index":0
				},
				"roughnessFactor":0.858578622341156
			}
		}
	],
	"meshes":[
		{
			"name":"Mesh.049",
			"primitives":[
				{
					"attributes":{
						"POSITION":0,
						"NORMAL":1,
						"TEXCOORD_0":2
					},
					"indices":3,
					"material":0
				}
			]
		}
	],
	"textures":[
		{
			"sampler":0,
			"source":0
		}
	],
	"images":[
		{
			"mimeType":"image/jpeg",
			"name":"color_1024x1024",
			"uri":"textures/color_1024x1024.jpg"
		}
	],
	"accessors":[
		{
			"bufferView":0,
			"componentType":5126,
			"count":1126,
			"max":[
				1.4405030012130737,
				3.276746988296509,
				0.7874608039855957
			],
			"min":[
				-1.2470561265945435,
				-1.3554032562979046e-08,
				-0.9666635990142822
			],
			"type":"VEC3"
		},
		{
			"bufferView":1,
			"componentType":5126,
			"count":1126,
			"type":"VEC3"
		},
		{
			"bufferView":2,
			"componentType":5126,
			"count":1126,
			"type":"VEC2"
		},
		{
			"bufferView":3,
			"componentType":5123,
			"count":1248,
			"type":"SCALAR"
		}
	],
	"bufferViews":[
		{
			"buffer":0,
			"byteLength":13512,
			"byteOffset":0,
			"target":34962
		},
		{
			"buffer":0,
			"byteLength":13512,
			"byteOffset":13512,
			"target":34962
		},
		{
			"buffer":0,
			"byteLength":9008,
			"byteOffset":27024,
			"target":34962
		},
		{
			"buffer":0,
			"byteLength":2496,
			"byteOffset":36032,
			"target":34963
		}
	],
	"samplers":[
		{
			"magFilter":9729,
			"minFilter":9987
		}
	],
	"buffers":[
		{
			"byteLength":38528,
			"uri":"Tree_50.bin"
		}
	]
}
