{
	"asset":{
		"generator":"Khronos glTF Blender I/O v4.5.48",
		"version":"2.0"
	},
	"extensionsUsed":[
		"KHR_materials_specular"
	],
	"scene":0,
	"scenes":[
		{
			"name":"Scene",
			"nodes":[
				0
			]
		}
	],
	"nodes":[
		{
			"mesh":0,
			"name":"Tree_48"
		}
	],
	"materials":[
		{
			"doubleSided":true,
			"extensions":{
				"KHR_materials_specular":{
					"specularFactor":0
				}
			},
			"name":"tree_color",
			"pbrMetallicRoughness":{
				"baseColorTexture":{
					"index":0
				},
				"roughnessFactor":0.858578622341156
			}
		}
	],
	"meshes":[
		{
			"name":"Mesh.047",
			"primitives":[
				{
					"attributes":{
						"POSITION":0,
						"NORMAL":1,
						"TEXCOORD_0":2
					},
					"indices":3,
					"material":0
				}
			]
		}
	],
	"textures":[
		{
			"sampler":0,
			"source":0
		}
	],
	"images":[
		{
			"mimeType":"image/jpeg",
			"name":"color_1024x1024",
			"uri":"textures/color_1024x1024.jpg"
		}
	],
	"accessors":[
		{
			"bufferView":0,
			"componentType":5126,
			"count":664,
			"max":[
				0.8369503617286682,
				3.2055752277374268,
				0.6708151698112488
			],
			"min":[
				-1.094797134399414,
				-1.2149229178248788e-08,
				-0.4905157685279846
			],
			"type":"VEC3"
		},
		{
			"bufferView":1,
			"componentType":5126,
			"count":664,
			"type":"VEC3"
		},
		{
			"bufferView":2,
			"componentType":5126,
			"count":664,
			"type":"VEC2"
		},
		{
			"bufferView":3,
			"componentType":5123,
			"count":1008,
			"type":"SCALAR"
		}
	],
	"bufferViews":[
		{
			"buffer":0,
			"byteLength":7968,
			"byteOffset":0,
			"target":34962
		},
		{
			"buffer":0,
			"byteLength":7968,
			"byteOffset":7968,
			"target":34962
		},
		{
			"buffer":0,
			"byteLength":5312,
			"byteOffset":15936,
			"target":34962
		},
		{
			"buffer":0,
			"byteLength":2016,
			"byteOffset":21248,
			"target":34963
		}
	],
	"samplers":[
		{
			"magFilter":9729,
			"minFilter":9987
		}
	],
	"buffers":[
		{
			"byteLength":23264,
			"uri":"Tree_48.bin"
		}
	]
}
