{
	"asset":{
		"generator":"Khronos glTF Blender I/O v4.5.48",
		"version":"2.0"
	},
	"extensionsUsed":[
		"KHR_materials_specular"
	],
	"scene":0,
	"scenes":[
		{
			"name":"Scene",
			"nodes":[
				0
			]
		}
	],
	"nodes":[
		{
			"mesh":0,
			"name":"Tree_20"
		}
	],
	"materials":[
		{
			"doubleSided":true,
			"extensions":{
				"KHR_materials_specular":{
					"specularFactor":0
				}
			},
			"name":"tree_color",
			"pbrMetallicRoughness":{
				"baseColorTexture":{
					"index":0
				},
				"roughnessFactor":0.858578622341156
			}
		}
	],
	"meshes":[
		{
			"name":"Mesh.019",
			"primitives":[
				{
					"attributes":{
						"POSITION":0,
						"NORMAL":1,
						"TEXCOORD_0":2
					},
					"indices":3,
					"material":0
				}
			]
		}
	],
	"textures":[
		{
			"sampler":0,
			"source":0
		}
	],
	"images":[
		{
			"mimeType":"image/jpeg",
			"name":"color_1024x1024",
			"uri":"textures/color_1024x1024.jpg"
		}
	],
	"accessors":[
		{
			"bufferView":0,
			"componentType":5126,
			"count":434,
			"max":[
				0.39531421661376953,
				2.373710870742798,
				0.37197551131248474
			],
			"min":[
				-0.4445984661579132,
				-3.6475320541740075e-09,
				-0.3989327549934387
			],
			"type":"VEC3"
		},
		{
			"bufferView":1,
			"componentType":5126,
			"count":434,
			"type":"VEC3"
		},
		{
			"bufferView":2,
			"componentType":5126,
			"count":434,
			"type":"VEC2"
		},
		{
			"bufferView":3,
			"componentType":5123,
			"count":660,
			"type":"SCALAR"
		}
	],
	"bufferViews":[
		{
			"buffer":0,
			"byteLength":5208,
			"byteOffset":0,
			"target":34962
		},
		{
			"buffer":0,
			"byteLength":5208,
			"byteOffset":5208,
			"target":34962
		},
		{
			"buffer":0,
			"byteLength":3472,
			"byteOffset":10416,
			"target":34962
		},
		{
			"buffer":0,
			"byteLength":1320,
			"byteOffset":13888,
			"target":34963
		}
	],
	"samplers":[
		{
			"magFilter":9729,
			"minFilter":9987
		}
	],
	"buffers":[
		{
			"byteLength":15208,
			"uri":"Tree_20.bin"
		}
	]
}
