{
	"asset":{
		"generator":"Khronos glTF Blender I/O v4.5.48",
		"version":"2.0"
	},
	"extensionsUsed":[
		"KHR_materials_specular"
	],
	"scene":0,
	"scenes":[
		{
			"name":"Scene",
			"nodes":[
				0
			]
		}
	],
	"nodes":[
		{
			"mesh":0,
			"name":"Tree_29"
		}
	],
	"materials":[
		{
			"doubleSided":true,
			"extensions":{
				"KHR_materials_specular":{
					"specularFactor":0
				}
			},
			"name":"tree_color",
			"pbrMetallicRoughness":{
				"baseColorTexture":{
					"index":0
				},
				"roughnessFactor":0.858578622341156
			}
		}
	],
	"meshes":[
		{
			"name":"Mesh.028",
			"primitives":[
				{
					"attributes":{
						"POSITION":0,
						"NORMAL":1,
						"TEXCOORD_0":2
					},
					"indices":3,
					"material":0
				}
			]
		}
	],
	"textures":[
		{
			"sampler":0,
			"source":0
		}
	],
	"images":[
		{
			"mimeType":"image/jpeg",
			"name":"color_1024x1024",
			"uri":"textures/color_1024x1024.jpg"
		}
	],
	"accessors":[
		{
			"bufferView":0,
			"componentType":5126,
			"count":334,
			"max":[
				0.47014397382736206,
				1.7384933233261108,
				0.3863624632358551
			],
			"min":[
				-0.4181552529335022,
				-6.292898202531205e-09,
				-0.37416884303092957
			],
			"type":"VEC3"
		},
		{
			"bufferView":1,
			"componentType":5126,
			"count":334,
			"type":"VEC3"
		},
		{
			"bufferView":2,
			"componentType":5126,
			"count":334,
			"type":"VEC2"
		},
		{
			"bufferView":3,
			"componentType":5123,
			"count":366,
			"type":"SCALAR"
		}
	],
	"bufferViews":[
		{
			"buffer":0,
			"byteLength":4008,
			"byteOffset":0,
			"target":34962
		},
		{
			"buffer":0,
			"byteLength":4008,
			"byteOffset":4008,
			"target":34962
		},
		{
			"buffer":0,
			"byteLength":2672,
			"byteOffset":8016,
			"target":34962
		},
		{
			"buffer":0,
			"byteLength":732,
			"byteOffset":10688,
			"target":34963
		}
	],
	"samplers":[
		{
			"magFilter":9729,
			"minFilter":9987
		}
	],
	"buffers":[
		{
			"byteLength":11420,
			"uri":"Tree_29.bin"
		}
	]
}
