{
	"asset":{
		"generator":"Khronos glTF Blender I/O v4.5.48",
		"version":"2.0"
	},
	"extensionsUsed":[
		"KHR_materials_specular"
	],
	"scene":0,
	"scenes":[
		{
			"name":"Scene",
			"nodes":[
				0
			]
		}
	],
	"nodes":[
		{
			"mesh":0,
			"name":"Tree_62"
		}
	],
	"materials":[
		{
			"doubleSided":true,
			"extensions":{
				"KHR_materials_specular":{
					"specularFactor":0
				}
			},
			"name":"tree_color",
			"pbrMetallicRoughness":{
				"baseColorTexture":{
					"index":0
				},
				"roughnessFactor":0.858578622341156
			}
		}
	],
	"meshes":[
		{
			"name":"Mesh.061",
			"primitives":[
				{
					"attributes":{
						"POSITION":0,
						"NORMAL":1,
						"TEXCOORD_0":2
					},
					"indices":3,
					"material":0
				}
			]
		}
	],
	"textures":[
		{
			"sampler":0,
			"source":0
		}
	],
	"images":[
		{
			"mimeType":"image/jpeg",
			"name":"color_1024x1024",
			"uri":"textures/color_1024x1024.jpg"
		}
	],
	"accessors":[
		{
			"bufferView":0,
			"componentType":5126,
			"count":3370,
			"max":[
				2.661309003829956,
				4.222004413604736,
				0.8751164078712463
			],
			"min":[
				-1.7447444200515747,
				-5.121815505049199e-08,
				-0.7540643215179443
			],
			"type":"VEC3"
		},
		{
			"bufferView":1,
			"componentType":5126,
			"count":3370,
			"type":"VEC3"
		},
		{
			"bufferView":2,
			"componentType":5126,
			"count":3370,
			"type":"VEC2"
		},
		{
			"bufferView":3,
			"componentType":5123,
			"count":5220,
			"type":"SCALAR"
		}
	],
	"bufferViews":[
		{
			"buffer":0,
			"byteLength":40440,
			"byteOffset":0,
			"target":34962
		},
		{
			"buffer":0,
			"byteLength":40440,
			"byteOffset":40440,
			"target":34962
		},
		{
			"buffer":0,
			"byteLength":26960,
			"byteOffset":80880,
			"target":34962
		},
		{
			"buffer":0,
			"byteLength":10440,
			"byteOffset":107840,
			"target":34963
		}
	],
	"samplers":[
		{
			"magFilter":9729,
			"minFilter":9987
		}
	],
	"buffers":[
		{
			"byteLength":118280,
			"uri":"Tree_62.bin"
		}
	]
}
