{
	"asset":{
		"generator":"Khronos glTF Blender I/O v4.5.48",
		"version":"2.0"
	},
	"extensionsUsed":[
		"KHR_materials_specular"
	],
	"scene":0,
	"scenes":[
		{
			"name":"Scene",
			"nodes":[
				0
			]
		}
	],
	"nodes":[
		{
			"mesh":0,
			"name":"Tree_63"
		}
	],
	"materials":[
		{
			"doubleSided":true,
			"extensions":{
				"KHR_materials_specular":{
					"specularFactor":0
				}
			},
			"name":"tree_color",
			"pbrMetallicRoughness":{
				"baseColorTexture":{
					"index":0
				},
				"roughnessFactor":0.858578622341156
			}
		}
	],
	"meshes":[
		{
			"name":"Mesh.062",
			"primitives":[
				{
					"attributes":{
						"POSITION":0,
						"NORMAL":1,
						"TEXCOORD_0":2
					},
					"indices":3,
					"material":0
				}
			]
		}
	],
	"textures":[
		{
			"sampler":0,
			"source":0
		}
	],
	"images":[
		{
			"mimeType":"image/jpeg",
			"name":"color_1024x1024",
			"uri":"textures/color_1024x1024.jpg"
		}
	],
	"accessors":[
		{
			"bufferView":0,
			"componentType":5126,
			"count":2300,
			"max":[
				1.4574066400527954,
				4.020099639892578,
				1.9916529655456543
			],
			"min":[
				-1.380515694618225,
				-2.271162742317756e-07,
				-0.934343159198761
			],
			"type":"VEC3"
		},
		{
			"bufferView":1,
			"componentType":5126,
			"count":2300,
			"type":"VEC3"
		},
		{
			"bufferView":2,
			"componentType":5126,
			"count":2300,
			"type":"VEC2"
		},
		{
			"bufferView":3,
			"componentType":5123,
			"count":3516,
			"type":"SCALAR"
		}
	],
	"bufferViews":[
		{
			"buffer":0,
			"byteLength":27600,
			"byteOffset":0,
			"target":34962
		},
		{
			"buffer":0,
			"byteLength":27600,
			"byteOffset":27600,
			"target":34962
		},
		{
			"buffer":0,
			"byteLength":18400,
			"byteOffset":55200,
			"target":34962
		},
		{
			"buffer":0,
			"byteLength":7032,
			"byteOffset":73600,
			"target":34963
		}
	],
	"samplers":[
		{
			"magFilter":9729,
			"minFilter":9987
		}
	],
	"buffers":[
		{
			"byteLength":80632,
			"uri":"Tree_63.bin"
		}
	]
}
