{
	"asset":{
		"generator":"Khronos glTF Blender I/O v4.5.48",
		"version":"2.0"
	},
	"extensionsUsed":[
		"KHR_materials_specular"
	],
	"scene":0,
	"scenes":[
		{
			"name":"Scene",
			"nodes":[
				0
			]
		}
	],
	"nodes":[
		{
			"mesh":0,
			"name":"Tree_23"
		}
	],
	"materials":[
		{
			"doubleSided":true,
			"extensions":{
				"KHR_materials_specular":{
					"specularFactor":0
				}
			},
			"name":"tree_color",
			"pbrMetallicRoughness":{
				"baseColorTexture":{
					"index":0
				},
				"roughnessFactor":0.858578622341156
			}
		}
	],
	"meshes":[
		{
			"name":"Mesh.022",
			"primitives":[
				{
					"attributes":{
						"POSITION":0,
						"NORMAL":1,
						"TEXCOORD_0":2
					},
					"indices":3,
					"material":0
				}
			]
		}
	],
	"textures":[
		{
			"sampler":0,
			"source":0
		}
	],
	"images":[
		{
			"mimeType":"image/jpeg",
			"name":"color_1024x1024",
			"uri":"textures/color_1024x1024.jpg"
		}
	],
	"accessors":[
		{
			"bufferView":0,
			"componentType":5126,
			"count":322,
			"max":[
				0.5239059329032898,
				2.160291910171509,
				0.5089463591575623
			],
			"min":[
				-0.4872051775455475,
				-6.5522978154319844e-09,
				-0.5225437879562378
			],
			"type":"VEC3"
		},
		{
			"bufferView":1,
			"componentType":5126,
			"count":322,
			"type":"VEC3"
		},
		{
			"bufferView":2,
			"componentType":5126,
			"count":322,
			"type":"VEC2"
		},
		{
			"bufferView":3,
			"componentType":5123,
			"count":354,
			"type":"SCALAR"
		}
	],
	"bufferViews":[
		{
			"buffer":0,
			"byteLength":3864,
			"byteOffset":0,
			"target":34962
		},
		{
			"buffer":0,
			"byteLength":3864,
			"byteOffset":3864,
			"target":34962
		},
		{
			"buffer":0,
			"byteLength":2576,
			"byteOffset":7728,
			"target":34962
		},
		{
			"buffer":0,
			"byteLength":708,
			"byteOffset":10304,
			"target":34963
		}
	],
	"samplers":[
		{
			"magFilter":9729,
			"minFilter":9987
		}
	],
	"buffers":[
		{
			"byteLength":11012,
			"uri":"Tree_23.bin"
		}
	]
}
