{
	"asset":{
		"generator":"Khronos glTF Blender I/O v4.5.48",
		"version":"2.0"
	},
	"extensionsUsed":[
		"KHR_materials_specular"
	],
	"scene":0,
	"scenes":[
		{
			"name":"Scene",
			"nodes":[
				0
			]
		}
	],
	"nodes":[
		{
			"mesh":0,
			"name":"Tree_109"
		}
	],
	"materials":[
		{
			"doubleSided":true,
			"extensions":{
				"KHR_materials_specular":{
					"specularFactor":0
				}
			},
			"name":"tree_color",
			"pbrMetallicRoughness":{
				"baseColorTexture":{
					"index":0
				},
				"roughnessFactor":0.858578622341156
			}
		}
	],
	"meshes":[
		{
			"name":"Mesh.108",
			"primitives":[
				{
					"attributes":{
						"POSITION":0,
						"NORMAL":1,
						"TEXCOORD_0":2
					},
					"indices":3,
					"material":0
				}
			]
		}
	],
	"textures":[
		{
			"sampler":0,
			"source":0
		}
	],
	"images":[
		{
			"mimeType":"image/jpeg",
			"name":"color_1024x1024",
			"uri":"textures/color_1024x1024.jpg"
		}
	],
	"accessors":[
		{
			"bufferView":0,
			"componentType":5126,
			"count":672,
			"max":[
				0.6043814420700073,
				2.2238478660583496,
				0.6241090893745422
			],
			"min":[
				-0.6355948448181152,
				-5.592247553920515e-09,
				-0.6158671975135803
			],
			"type":"VEC3"
		},
		{
			"bufferView":1,
			"componentType":5126,
			"count":672,
			"type":"VEC3"
		},
		{
			"bufferView":2,
			"componentType":5126,
			"count":672,
			"type":"VEC2"
		},
		{
			"bufferView":3,
			"componentType":5123,
			"count":708,
			"type":"SCALAR"
		}
	],
	"bufferViews":[
		{
			"buffer":0,
			"byteLength":8064,
			"byteOffset":0,
			"target":34962
		},
		{
			"buffer":0,
			"byteLength":8064,
			"byteOffset":8064,
			"target":34962
		},
		{
			"buffer":0,
			"byteLength":5376,
			"byteOffset":16128,
			"target":34962
		},
		{
			"buffer":0,
			"byteLength":1416,
			"byteOffset":21504,
			"target":34963
		}
	],
	"samplers":[
		{
			"magFilter":9729,
			"minFilter":9987
		}
	],
	"buffers":[
		{
			"byteLength":22920,
			"uri":"Tree_109.bin"
		}
	]
}
