{
	"asset":{
		"generator":"Khronos glTF Blender I/O v4.5.48",
		"version":"2.0"
	},
	"extensionsUsed":[
		"KHR_materials_specular"
	],
	"scene":0,
	"scenes":[
		{
			"name":"Scene",
			"nodes":[
				0
			]
		}
	],
	"nodes":[
		{
			"mesh":0,
			"name":"Tree_105"
		}
	],
	"materials":[
		{
			"doubleSided":true,
			"extensions":{
				"KHR_materials_specular":{
					"specularFactor":0
				}
			},
			"name":"tree_color",
			"pbrMetallicRoughness":{
				"baseColorTexture":{
					"index":0
				},
				"roughnessFactor":0.858578622341156
			}
		}
	],
	"meshes":[
		{
			"name":"Mesh.104",
			"primitives":[
				{
					"attributes":{
						"POSITION":0,
						"NORMAL":1,
						"TEXCOORD_0":2
					},
					"indices":3,
					"material":0
				}
			]
		}
	],
	"textures":[
		{
			"sampler":0,
			"source":0
		}
	],
	"images":[
		{
			"mimeType":"image/jpeg",
			"name":"color_1024x1024",
			"uri":"textures/color_1024x1024.jpg"
		}
	],
	"accessors":[
		{
			"bufferView":0,
			"componentType":5126,
			"count":912,
			"max":[
				0.35813644528388977,
				1.6370850801467896,
				0.3814336955547333
			],
			"min":[
				-0.35867589712142944,
				-4.481568005587633e-09,
				-0.3869970440864563
			],
			"type":"VEC3"
		},
		{
			"bufferView":1,
			"componentType":5126,
			"count":912,
			"type":"VEC3"
		},
		{
			"bufferView":2,
			"componentType":5126,
			"count":912,
			"type":"VEC2"
		},
		{
			"bufferView":3,
			"componentType":5123,
			"count":1308,
			"type":"SCALAR"
		}
	],
	"bufferViews":[
		{
			"buffer":0,
			"byteLength":10944,
			"byteOffset":0,
			"target":34962
		},
		{
			"buffer":0,
			"byteLength":10944,
			"byteOffset":10944,
			"target":34962
		},
		{
			"buffer":0,
			"byteLength":7296,
			"byteOffset":21888,
			"target":34962
		},
		{
			"buffer":0,
			"byteLength":2616,
			"byteOffset":29184,
			"target":34963
		}
	],
	"samplers":[
		{
			"magFilter":9729,
			"minFilter":9987
		}
	],
	"buffers":[
		{
			"byteLength":31800,
			"uri":"Tree_105.bin"
		}
	]
}
