{
	"asset":{
		"generator":"Khronos glTF Blender I/O v4.5.48",
		"version":"2.0"
	},
	"extensionsUsed":[
		"KHR_materials_specular"
	],
	"scene":0,
	"scenes":[
		{
			"name":"Scene",
			"nodes":[
				0
			]
		}
	],
	"nodes":[
		{
			"mesh":0,
			"name":"Tree_76"
		}
	],
	"materials":[
		{
			"doubleSided":true,
			"extensions":{
				"KHR_materials_specular":{
					"specularFactor":0
				}
			},
			"name":"tree_color",
			"pbrMetallicRoughness":{
				"baseColorTexture":{
					"index":0
				},
				"roughnessFactor":0.858578622341156
			}
		}
	],
	"meshes":[
		{
			"name":"Mesh.075",
			"primitives":[
				{
					"attributes":{
						"POSITION":0,
						"NORMAL":1,
						"TEXCOORD_0":2
					},
					"indices":3,
					"material":0
				}
			]
		}
	],
	"textures":[
		{
			"sampler":0,
			"source":0
		}
	],
	"images":[
		{
			"mimeType":"image/jpeg",
			"name":"color_1024x1024",
			"uri":"textures/color_1024x1024.jpg"
		}
	],
	"accessors":[
		{
			"bufferView":0,
			"componentType":5126,
			"count":932,
			"max":[
				0.6269048452377319,
				2.410161018371582,
				0.8735923171043396
			],
			"min":[
				-0.9395195245742798,
				-6.752285841571393e-09,
				-0.7079250812530518
			],
			"type":"VEC3"
		},
		{
			"bufferView":1,
			"componentType":5126,
			"count":932,
			"type":"VEC3"
		},
		{
			"bufferView":2,
			"componentType":5126,
			"count":932,
			"type":"VEC2"
		},
		{
			"bufferView":3,
			"componentType":5123,
			"count":1416,
			"type":"SCALAR"
		}
	],
	"bufferViews":[
		{
			"buffer":0,
			"byteLength":11184,
			"byteOffset":0,
			"target":34962
		},
		{
			"buffer":0,
			"byteLength":11184,
			"byteOffset":11184,
			"target":34962
		},
		{
			"buffer":0,
			"byteLength":7456,
			"byteOffset":22368,
			"target":34962
		},
		{
			"buffer":0,
			"byteLength":2832,
			"byteOffset":29824,
			"target":34963
		}
	],
	"samplers":[
		{
			"magFilter":9729,
			"minFilter":9987
		}
	],
	"buffers":[
		{
			"byteLength":32656,
			"uri":"Tree_76.bin"
		}
	]
}
