{
	"asset":{
		"generator":"Khronos glTF Blender I/O v4.5.48",
		"version":"2.0"
	},
	"extensionsUsed":[
		"KHR_materials_specular"
	],
	"scene":0,
	"scenes":[
		{
			"name":"Scene",
			"nodes":[
				0
			]
		}
	],
	"nodes":[
		{
			"mesh":0,
			"name":"Tree_61"
		}
	],
	"materials":[
		{
			"doubleSided":true,
			"extensions":{
				"KHR_materials_specular":{
					"specularFactor":0
				}
			},
			"name":"tree_color",
			"pbrMetallicRoughness":{
				"baseColorTexture":{
					"index":0
				},
				"roughnessFactor":0.858578622341156
			}
		}
	],
	"meshes":[
		{
			"name":"Mesh.060",
			"primitives":[
				{
					"attributes":{
						"POSITION":0,
						"NORMAL":1,
						"TEXCOORD_0":2
					},
					"indices":3,
					"material":0
				}
			]
		}
	],
	"textures":[
		{
			"sampler":0,
			"source":0
		}
	],
	"images":[
		{
			"mimeType":"image/jpeg",
			"name":"color_1024x1024",
			"uri":"textures/color_1024x1024.jpg"
		}
	],
	"accessors":[
		{
			"bufferView":0,
			"componentType":5126,
			"count":2888,
			"max":[
				2.1464545726776123,
				3.545001745223999,
				0.7130598425865173
			],
			"min":[
				-1.2483105659484863,
				1.5114693496798282e-07,
				-0.5972931981086731
			],
			"type":"VEC3"
		},
		{
			"bufferView":1,
			"componentType":5126,
			"count":2888,
			"type":"VEC3"
		},
		{
			"bufferView":2,
			"componentType":5126,
			"count":2888,
			"type":"VEC2"
		},
		{
			"bufferView":3,
			"componentType":5123,
			"count":4476,
			"type":"SCALAR"
		}
	],
	"bufferViews":[
		{
			"buffer":0,
			"byteLength":34656,
			"byteOffset":0,
			"target":34962
		},
		{
			"buffer":0,
			"byteLength":34656,
			"byteOffset":34656,
			"target":34962
		},
		{
			"buffer":0,
			"byteLength":23104,
			"byteOffset":69312,
			"target":34962
		},
		{
			"buffer":0,
			"byteLength":8952,
			"byteOffset":92416,
			"target":34963
		}
	],
	"samplers":[
		{
			"magFilter":9729,
			"minFilter":9987
		}
	],
	"buffers":[
		{
			"byteLength":101368,
			"uri":"Tree_61.bin"
		}
	]
}
