{
	"asset":{
		"generator":"Khronos glTF Blender I/O v4.5.48",
		"version":"2.0"
	},
	"extensionsUsed":[
		"KHR_materials_specular"
	],
	"scene":0,
	"scenes":[
		{
			"name":"Scene",
			"nodes":[
				0
			]
		}
	],
	"nodes":[
		{
			"mesh":0,
			"name":"Tree_13"
		}
	],
	"materials":[
		{
			"doubleSided":true,
			"extensions":{
				"KHR_materials_specular":{
					"specularFactor":0
				}
			},
			"name":"tree_color",
			"pbrMetallicRoughness":{
				"baseColorTexture":{
					"index":0
				},
				"roughnessFactor":0.858578622341156
			}
		}
	],
	"meshes":[
		{
			"name":"Mesh.012",
			"primitives":[
				{
					"attributes":{
						"POSITION":0,
						"NORMAL":1,
						"TEXCOORD_0":2
					},
					"indices":3,
					"material":0
				}
			]
		}
	],
	"textures":[
		{
			"sampler":0,
			"source":0
		}
	],
	"images":[
		{
			"mimeType":"image/jpeg",
			"name":"color_1024x1024",
			"uri":"textures/color_1024x1024.jpg"
		}
	],
	"accessors":[
		{
			"bufferView":0,
			"componentType":5126,
			"count":690,
			"max":[
				0.7986548542976379,
				4.003769874572754,
				0.7620410323143005
			],
			"min":[
				-0.8849983811378479,
				1.7853653844213113e-07,
				-0.8006148934364319
			],
			"type":"VEC3"
		},
		{
			"bufferView":1,
			"componentType":5126,
			"count":690,
			"type":"VEC3"
		},
		{
			"bufferView":2,
			"componentType":5126,
			"count":690,
			"type":"VEC2"
		},
		{
			"bufferView":3,
			"componentType":5123,
			"count":948,
			"type":"SCALAR"
		}
	],
	"bufferViews":[
		{
			"buffer":0,
			"byteLength":8280,
			"byteOffset":0,
			"target":34962
		},
		{
			"buffer":0,
			"byteLength":8280,
			"byteOffset":8280,
			"target":34962
		},
		{
			"buffer":0,
			"byteLength":5520,
			"byteOffset":16560,
			"target":34962
		},
		{
			"buffer":0,
			"byteLength":1896,
			"byteOffset":22080,
			"target":34963
		}
	],
	"samplers":[
		{
			"magFilter":9729,
			"minFilter":9987
		}
	],
	"buffers":[
		{
			"byteLength":23976,
			"uri":"Tree_13.bin"
		}
	]
}
