{
	"asset":{
		"generator":"Khronos glTF Blender I/O v4.5.48",
		"version":"2.0"
	},
	"extensionsUsed":[
		"KHR_materials_specular"
	],
	"scene":0,
	"scenes":[
		{
			"name":"Scene",
			"nodes":[
				0
			]
		}
	],
	"nodes":[
		{
			"mesh":0,
			"name":"Tree_68"
		}
	],
	"materials":[
		{
			"doubleSided":true,
			"extensions":{
				"KHR_materials_specular":{
					"specularFactor":0
				}
			},
			"name":"tree_color",
			"pbrMetallicRoughness":{
				"baseColorTexture":{
					"index":0
				},
				"roughnessFactor":0.858578622341156
			}
		}
	],
	"meshes":[
		{
			"name":"Mesh.067",
			"primitives":[
				{
					"attributes":{
						"POSITION":0,
						"NORMAL":1,
						"TEXCOORD_0":2
					},
					"indices":3,
					"material":0
				}
			]
		}
	],
	"textures":[
		{
			"sampler":0,
			"source":0
		}
	],
	"images":[
		{
			"mimeType":"image/jpeg",
			"name":"color_1024x1024",
			"uri":"textures/color_1024x1024.jpg"
		}
	],
	"accessors":[
		{
			"bufferView":0,
			"componentType":5126,
			"count":1796,
			"max":[
				1.3347935676574707,
				3.3001627922058105,
				1.214339017868042
			],
			"min":[
				-1.561863660812378,
				-1.2347712186056015e-07,
				-1.1975017786026
			],
			"type":"VEC3"
		},
		{
			"bufferView":1,
			"componentType":5126,
			"count":1796,
			"type":"VEC3"
		},
		{
			"bufferView":2,
			"componentType":5126,
			"count":1796,
			"type":"VEC2"
		},
		{
			"bufferView":3,
			"componentType":5123,
			"count":2448,
			"type":"SCALAR"
		}
	],
	"bufferViews":[
		{
			"buffer":0,
			"byteLength":21552,
			"byteOffset":0,
			"target":34962
		},
		{
			"buffer":0,
			"byteLength":21552,
			"byteOffset":21552,
			"target":34962
		},
		{
			"buffer":0,
			"byteLength":14368,
			"byteOffset":43104,
			"target":34962
		},
		{
			"buffer":0,
			"byteLength":4896,
			"byteOffset":57472,
			"target":34963
		}
	],
	"samplers":[
		{
			"magFilter":9729,
			"minFilter":9987
		}
	],
	"buffers":[
		{
			"byteLength":62368,
			"uri":"Tree_68.bin"
		}
	]
}
