{
	"asset":{
		"generator":"Khronos glTF Blender I/O v4.5.48",
		"version":"2.0"
	},
	"extensionsUsed":[
		"KHR_materials_specular"
	],
	"scene":0,
	"scenes":[
		{
			"name":"Scene",
			"nodes":[
				0
			]
		}
	],
	"nodes":[
		{
			"mesh":0,
			"name":"Tree_64"
		}
	],
	"materials":[
		{
			"doubleSided":true,
			"extensions":{
				"KHR_materials_specular":{
					"specularFactor":0
				}
			},
			"name":"tree_color",
			"pbrMetallicRoughness":{
				"baseColorTexture":{
					"index":0
				},
				"roughnessFactor":0.858578622341156
			}
		}
	],
	"meshes":[
		{
			"name":"Mesh.063",
			"primitives":[
				{
					"attributes":{
						"POSITION":0,
						"NORMAL":1,
						"TEXCOORD_0":2
					},
					"indices":3,
					"material":0
				}
			]
		}
	],
	"textures":[
		{
			"sampler":0,
			"source":0
		}
	],
	"images":[
		{
			"mimeType":"image/jpeg",
			"name":"color_1024x1024",
			"uri":"textures/color_1024x1024.jpg"
		}
	],
	"accessors":[
		{
			"bufferView":0,
			"componentType":5126,
			"count":2876,
			"max":[
				2.075728178024292,
				4.775241374969482,
				0.9983425140380859
			],
			"min":[
				-1.9742320775985718,
				-6.441887734354168e-08,
				-0.9983425140380859
			],
			"type":"VEC3"
		},
		{
			"bufferView":1,
			"componentType":5126,
			"count":2876,
			"type":"VEC3"
		},
		{
			"bufferView":2,
			"componentType":5126,
			"count":2876,
			"type":"VEC2"
		},
		{
			"bufferView":3,
			"componentType":5123,
			"count":4392,
			"type":"SCALAR"
		}
	],
	"bufferViews":[
		{
			"buffer":0,
			"byteLength":34512,
			"byteOffset":0,
			"target":34962
		},
		{
			"buffer":0,
			"byteLength":34512,
			"byteOffset":34512,
			"target":34962
		},
		{
			"buffer":0,
			"byteLength":23008,
			"byteOffset":69024,
			"target":34962
		},
		{
			"buffer":0,
			"byteLength":8784,
			"byteOffset":92032,
			"target":34963
		}
	],
	"samplers":[
		{
			"magFilter":9729,
			"minFilter":9987
		}
	],
	"buffers":[
		{
			"byteLength":100816,
			"uri":"Tree_64.bin"
		}
	]
}
