{
	"asset":{
		"generator":"Khronos glTF Blender I/O v4.5.48",
		"version":"2.0"
	},
	"extensionsUsed":[
		"KHR_materials_specular"
	],
	"scene":0,
	"scenes":[
		{
			"name":"Scene",
			"nodes":[
				0
			]
		}
	],
	"nodes":[
		{
			"mesh":0,
			"name":"Tree_71"
		}
	],
	"materials":[
		{
			"doubleSided":true,
			"extensions":{
				"KHR_materials_specular":{
					"specularFactor":0
				}
			},
			"name":"tree_color",
			"pbrMetallicRoughness":{
				"baseColorTexture":{
					"index":0
				},
				"roughnessFactor":0.858578622341156
			}
		}
	],
	"meshes":[
		{
			"name":"Mesh.070",
			"primitives":[
				{
					"attributes":{
						"POSITION":0,
						"NORMAL":1,
						"TEXCOORD_0":2
					},
					"indices":3,
					"material":0
				}
			]
		}
	],
	"textures":[
		{
			"sampler":0,
			"source":0
		}
	],
	"images":[
		{
			"mimeType":"image/jpeg",
			"name":"color_1024x1024",
			"uri":"textures/color_1024x1024.jpg"
		}
	],
	"accessors":[
		{
			"bufferView":0,
			"componentType":5126,
			"count":1254,
			"max":[
				0.6795608401298523,
				1.9736698865890503,
				0.7700937986373901
			],
			"min":[
				-0.701215386390686,
				-3.894347955224475e-09,
				-0.6970713138580322
			],
			"type":"VEC3"
		},
		{
			"bufferView":1,
			"componentType":5126,
			"count":1254,
			"type":"VEC3"
		},
		{
			"bufferView":2,
			"componentType":5126,
			"count":1254,
			"type":"VEC2"
		},
		{
			"bufferView":3,
			"componentType":5123,
			"count":1428,
			"type":"SCALAR"
		}
	],
	"bufferViews":[
		{
			"buffer":0,
			"byteLength":15048,
			"byteOffset":0,
			"target":34962
		},
		{
			"buffer":0,
			"byteLength":15048,
			"byteOffset":15048,
			"target":34962
		},
		{
			"buffer":0,
			"byteLength":10032,
			"byteOffset":30096,
			"target":34962
		},
		{
			"buffer":0,
			"byteLength":2856,
			"byteOffset":40128,
			"target":34963
		}
	],
	"samplers":[
		{
			"magFilter":9729,
			"minFilter":9987
		}
	],
	"buffers":[
		{
			"byteLength":42984,
			"uri":"Tree_71.bin"
		}
	]
}
