{
	"asset":{
		"generator":"Khronos glTF Blender I/O v4.5.48",
		"version":"2.0"
	},
	"extensionsUsed":[
		"KHR_materials_specular"
	],
	"scene":0,
	"scenes":[
		{
			"name":"Scene",
			"nodes":[
				0
			]
		}
	],
	"nodes":[
		{
			"mesh":0,
			"name":"Rock_1"
		}
	],
	"materials":[
		{
			"doubleSided":true,
			"extensions":{
				"KHR_materials_specular":{
					"specularFactor":0
				}
			},
			"name":"Rock",
			"pbrMetallicRoughness":{
				"baseColorTexture":{
					"index":0
				},
				"roughnessFactor":0.5527864098548889
			}
		}
	],
	"meshes":[
		{
			"name":"Cube.027",
			"primitives":[
				{
					"attributes":{
						"POSITION":0,
						"NORMAL":1,
						"TEXCOORD_0":2
					},
					"indices":3,
					"material":0
				}
			]
		}
	],
	"textures":[
		{
			"sampler":0,
			"source":0
		}
	],
	"images":[
		{
			"mimeType":"image/png",
			"name":"Rocks",
			"uri":"textures/Rocks.png"
		}
	],
	"accessors":[
		{
			"bufferView":0,
			"componentType":5126,
			"count":303,
			"max":[
				0.5179042220115662,
				1.9542065858840942,
				1.2019325494766235
			],
			"min":[
				-0.9034453630447388,
				-0.21076959371566772,
				-0.5728582143783569
			],
			"type":"VEC3"
		},
		{
			"bufferView":1,
			"componentType":5126,
			"count":303,
			"type":"VEC3"
		},
		{
			"bufferView":2,
			"componentType":5126,
			"count":303,
			"type":"VEC2"
		},
		{
			"bufferView":3,
			"componentType":5123,
			"count":684,
			"type":"SCALAR"
		}
	],
	"bufferViews":[
		{
			"buffer":0,
			"byteLength":3636,
			"byteOffset":0,
			"target":34962
		},
		{
			"buffer":0,
			"byteLength":3636,
			"byteOffset":3636,
			"target":34962
		},
		{
			"buffer":0,
			"byteLength":2424,
			"byteOffset":7272,
			"target":34962
		},
		{
			"buffer":0,
			"byteLength":1368,
			"byteOffset":9696,
			"target":34963
		}
	],
	"samplers":[
		{
			"magFilter":9729,
			"minFilter":9987
		}
	],
	"buffers":[
		{
			"byteLength":11064,
			"uri":"Rock_1.bin"
		}
	]
}
